<?xml version="1.0" encoding="UTF-8" standalone="no"?>
<svg viewBox="0 0 24 24" version="1.1" xmlns="http://www.w3.org/2000/svg" xmlns:xlink="http://www.w3.org/1999/xlink" xmlns:sketch="http://www.bohemiancoding.com/sketch/ns">
    <!-- Generator: Sketch 3.3 (11970) - http://www.bohemiancoding.com/sketch -->
    <title>typicon-object</title>
    <desc>Created with Sketch.</desc>
    <defs></defs>
    <g id="Page-1" stroke="none" stroke-width="1" fill="none" fill-rule="evenodd" sketch:type="MSPage">
        <g id="Artboard-92" sketch:type="MSArtboardGroup" transform="translate(-103.000000, -63.000000)" stroke="#000000" stroke-width="0.5" stroke-opacity="1">
            <g id="typicon-object" sketch:type="MSLayerGroup" transform="translate(103.000000, 63.000000)">
                <rect id="Rectangle-787" fill="#F8F424" sketch:type="MSShapeGroup" x="0.772598683" y="0.454736842" width="22.7368421" height="22.7368421" rx="3"></rect>
                <path d="M10.0838769,4.24421053 C7.23790481,4.24421053 6.38720663,5.00210526 6.38720663,7.10564984 L6.38720663,9.31746509 C6.38720663,10.4775081 5.90772221,10.8332546 4.91781888,10.8332546 L4.91781888,12.8130612 C5.92318945,12.8130612 6.38720663,13.1688077 6.38720663,14.3288507 L6.38720663,16.5561332 C6.38720663,18.6287433 7.23790481,19.4021053 10.0838769,19.4021053 L10.0838769,17.7007089 C9.14037527,17.7007089 8.67635808,17.4996348 8.67635808,16.7262728 L8.67635808,14.4371214 C8.67635808,12.6893233 6.43360835,11.8231579 6.43360835,11.8231579 C6.43360835,11.8231579 8.67635808,10.9415252 8.67635808,9.20919441 L8.67635808,6.92004296 C8.67635808,6.14668099 9.12490803,5.94560687 10.0838769,5.94560687 L10.0838769,4.24421053 Z M14.1981626,5.94560687 C15.1571314,5.94560687 15.6056814,6.14668099 15.6056814,6.92004296 L15.6056814,9.20919441 C15.6056814,10.9415252 17.8174966,11.8386251 17.8174966,11.8386251 C17.8174966,11.8386251 15.6056814,12.6583888 15.6056814,14.4371214 L15.6056814,16.7262728 C15.6056814,17.4996348 15.1416642,17.7007089 14.1981626,17.7007089 L14.1981626,19.4021053 C17.0441347,19.4021053 17.8948328,18.6287433 17.8948328,16.5561332 L17.8948328,14.3288507 C17.8948328,13.1688077 18.3743173,12.8130612 19.3642206,12.8130612 L19.3642206,10.8332546 C18.35885,10.8332546 17.8948328,10.4775081 17.8948328,9.31746509 L17.8948328,7.10564984 C17.8948328,5.00210526 17.0441347,4.24421053 14.1981626,4.24421053 L14.1981626,5.94560687 Z" id="{}" fill="#FFFFFF" sketch:type="MSShapeGroup"></path>
            </g>
        </g>
    </g>
</svg>
