<?xml version="1.0" encoding="UTF-8" standalone="no"?>
<svg viewBox="0 0 24 23" preserveAspectRatio="none" version="1.1" xmlns="http://www.w3.org/2000/svg" xmlns:xlink="http://www.w3.org/1999/xlink" xmlns:sketch="http://www.bohemiancoding.com/sketch/ns">
    <!-- Generator: Sketch 3.3 (11970) - http://www.bohemiancoding.com/sketch -->
    <title>typicon-function</title>
    <desc>Created with Sketch.</desc>
    <defs>
        <filter x="-50%" y="-50%" width="200%" height="200%" filterUnits="objectBoundingBox" id="filter-1">
            <feMorphology radius="0.5" in="SourceAlpha" operator="dilate" result="shadowSpreadOuter1"></feMorphology>
            <feOffset dx="0" dy="0" in="shadowSpreadOuter1" result="shadowOffsetOuter1"></feOffset>
            <feGaussianBlur stdDeviation="0" in="shadowOffsetOuter1" result="shadowBlurOuter1"></feGaussianBlur>
            <feColorMatrix values="0 0 0 0 0.2   0 0 0 0 0.2   0 0 0 0 0.2  0 0 0 0.21 0" in="shadowBlurOuter1" type="matrix" result="shadowMatrixOuter1"></feColorMatrix>
            <feMerge>
                <feMergeNode in="shadowMatrixOuter1"></feMergeNode>
                <feMergeNode in="SourceGraphic"></feMergeNode>
            </feMerge>
        </filter>
    </defs>
    <g id="Page-1" stroke="none" stroke-width="1" fill="none" fill-rule="evenodd" sketch:type="MSPage">
        <g id="Artboard-92" sketch:type="MSArtboardGroup" transform="translate(-103.000000, -9.000000)">
            <g id="typicon-function" sketch:type="MSLayerGroup" transform="translate(103.430000, 9.108000)">
                <rect id="Rectangle-787" stroke-opacity="0.3" stroke="#333333" stroke-width="0.5" fill="#E63F28" sketch:type="MSShapeGroup" x="0.229440789" y="0" width="22.7368421" height="22.7368421" rx="3"></rect>
                <path d="M16.6468427,4.95041071 C15.9897085,4.07423182 15.4859057,3.78947368 14.018306,3.78947368 C12.024999,3.78947368 10.0097876,5.10374201 9.28694003,7.90751445 L9.04599084,8.82750228 L7.77553145,8.82750228 L7.27172859,10.9084271 L8.54218798,10.9084271 L6.54888101,18.9473684 L9.17741767,18.9473684 L11.1707246,10.9084271 L13.1421271,10.9084271 L13.64593,8.82750228 L11.6745275,8.82750228 L11.9592856,7.7103742 C12.2440438,6.59324612 12.7916556,5.87039854 13.7116434,5.87039854 C14.3468731,5.87039854 14.9601983,6.02372984 15.2887654,6.94371768 L15.6611414,6.9218132 L16.6468427,4.95041071 Z" id="ð™›" fill="#FEFEFE" sketch:type="MSShapeGroup"></path>
            </g>
        </g>
    </g>
</svg>
