<?xml version="1.0" encoding="UTF-8" standalone="no"?>
<svg viewBox="0 0 24 23" version="1.1" xmlns="http://www.w3.org/2000/svg" xmlns:xlink="http://www.w3.org/1999/xlink" xmlns:sketch="http://www.bohemiancoding.com/sketch/ns">
    <!-- Generator: Sketch 3.3 (11970) - http://www.bohemiancoding.com/sketch -->
    <title>typicon-string-2</title>
    <desc>Created with Sketch.</desc>
    <defs></defs>
    <g id="Page-1" stroke="none" stroke-width="1" fill="none" fill-rule="evenodd" sketch:type="MSPage">
        <g id="Artboard-92" sketch:type="MSArtboardGroup" transform="translate(-70.000000, -150.000000)" stroke="#333333" stroke-width="0.5" stroke-opacity="0.3">
            <g id="typicon-string-2" sketch:type="MSLayerGroup" transform="translate(70.000000, 150.000000)">
                <rect id="Rectangle-787" fill="#2176D9" sketch:type="MSShapeGroup" x="0.772598683" y="0" width="22.7368421" height="22.7368421" rx="3"></rect>
                <path d="M8.43238816,14.0261053 C9.13975658,14.0261053 9.74607237,13.4602105 9.74607237,12.7528421 C9.74607237,12.3486316 9.56417763,12.0050526 9.22059868,11.7423158 L10.0290197,8.71073684 L8.81638816,8.71073684 L7.46228289,11.5806316 C7.19954605,12.1465263 7.11870395,12.4294737 7.11870395,12.7528421 C7.11870395,13.4602105 7.70480921,14.0261053 8.43238816,14.0261053 L8.43238816,14.0261053 Z M4.83491447,14.0261053 C5.54228289,14.0261053 6.14859868,13.4602105 6.14859868,12.7528421 C6.14859868,12.3486316 5.96670395,12.0050526 5.623125,11.7423158 L6.43154605,8.71073684 L5.21891447,8.71073684 L3.86480921,11.5806316 C3.60207237,12.1465263 3.52123026,12.4294737 3.52123026,12.7528421 C3.52123026,13.4602105 4.10733553,14.0261053 4.83491447,14.0261053 L4.83491447,14.0261053 Z M15.8496513,8.71073684 C15.1422829,8.71073684 14.5359671,9.27663158 14.5359671,9.984 C14.5359671,10.3882105 14.7178618,10.7317895 15.0614408,10.9945263 L14.2530197,14.0261053 L15.4656513,14.0261053 L16.8197566,11.1562105 C17.0824934,10.5903158 17.1633355,10.3073684 17.1633355,9.984 C17.1633355,9.27663158 16.5772303,8.71073684 15.8496513,8.71073684 L15.8496513,8.71073684 Z M19.447125,8.71073684 C18.7397566,8.71073684 18.1334408,9.27663158 18.1334408,9.984 C18.1334408,10.3882105 18.3153355,10.7317895 18.6589145,10.9945263 L17.8504934,14.0261053 L19.063125,14.0261053 L20.4172303,11.1562105 C20.6799671,10.5903158 20.7608092,10.3073684 20.7608092,9.984 C20.7608092,9.27663158 20.1747039,8.71073684 19.447125,8.71073684 L19.447125,8.71073684 Z" id="“”" fill="#FFFFFF" sketch:type="MSShapeGroup"></path>
            </g>
        </g>
    </g>
</svg>
